#!OML:ASF F:\VICON\USERDATA\INSTALL\rory3\rory3.ASF
:FULLY-SPECIFIED
:DEGREES
505
root -0.00627754 15.867 30.3619 2.52845 5.02559 5.78461
lowerback 12.4697 -0.176137 -8.77633
upperback -5.96384 -1.82078 0.203278
thorax -13.4564 -0.0551496 5.61715
lowerneck -9.86407 -5.27023 -4.11624
upperneck 20.1484 -7.02092 2.14012
head 8.08121 -3.44775 0.690242
rclavicle 1.05853e-014 3.33958e-014
rhumerus -45.2097 -7.29942 -81.4471
rradius 19.6211
rwrist 14.6605
rhand -9.91789 22.2092
rfingers 7.12502
rthumb 16.0627 -7.145
lclavicle 1.05853e-014 3.33958e-014
lhumerus -37.8746 2.02467 87.3662
lradius 27.8031
lwrist 3.57164
lhand -6.10726 18.7703
lfingers 7.12502
lthumb 19.7292 47.7891
rfemur -33.0439 17.4018 11.0372
rtibia 31.6634
rfoot -12.8522 -15.4149
rtoes 45.4221
lfemur 18.7774 -12.1647 -32.6069
ltibia 12.3183
lfoot -11.2747 4.29656
ltoes -12.3351
506
root -0.0367822 15.8602 30.5052 2.40158 4.9745 5.58405
lowerback 12.448 -0.164666 -8.74137
upperback -5.94819 -1.7867 0.276236
thorax -13.4282 -0.0399677 5.67079
lowerneck -9.29002 -5.10534 -3.85053
upperneck 19.789 -6.82147 2.00457
head 7.83583 -3.35436 0.643595
rclavicle 6.03808e-015 6.36111e-015
rhumerus -44.7249 -8.09749 -80.915
rradius 19.2911
rwrist 15.3803
rhand -10.1816 22.2138
rfingers 7.12502
rthumb 15.8087 -7.16075
lclavicle 6.03808e-015 6.36111e-015
lhumerus -38.0473 2.91666 86.8604
lradius 26.8159
lwrist 3.01124
lhand -5.67669 20.0451
lfingers 7.12502
lthumb 20.1431 49.0208
rfemur -32.7932 16.9308 11.7868
rtibia 32.3022
rfoot -11.9531 -15.1733
rtoes 45.5868
lfemur 17.3381 -11.3759 -31.9891
ltibia 15.548
lfoot -11.0759 3.55501
ltoes -12.4304
507
root -0.068978 15.8502 30.6482 2.16001 4.87859 5.48324
lowerback 12.5816 -0.126672 -8.83564
upperback -5.89924 -1.75586 0.342468
thorax -13.4559 -0.0129046 5.79561
lowerneck -9.94521 -5.25944 -3.95969
upperneck 20.2464 -7.03176 2.12232
head 8.12205 -3.44176 0.654458
rclavicle 1.75427e-014 -5.1684e-015
rhumerus -44.2161 -8.3885 -80.6947
rradius 19.0509
rwrist 15.4265
rhand -10.4537 22.2353
rfingers 7.12502
rthumb 15.5467 -7.15973
lclavicle 1.75427e-014 -5.1684e-015
lhumerus -38.4045 3.83771 86.3455
lradius 26.0675
lwrist 2.57072
lhand -5.32088 20.9639
lfingers 7.12502
lthumb 20.4851 49.9033
rfemur -32.4039 16.5619 12.4674
rtibia 32.9458
rfoot -11.417 -14.648
rtoes 45.8994
lfemur 16.1595 -10.3971 -31.4342
ltibia 18.509
lfoot -10.6169 2.72671
ltoes -13.2536
508
root -0.100317 15.8411 30.7913 1.86177 4.79572 5.32782
lowerback 12.868 -0.0604751 -8.84299
upperback -5.88552 -1.68628 0.430238
thorax -13.6265 0.0350527 5.89249
lowerneck -10.3846 -5.32737 -4.11816
upperneck 20.6958 -7.11405 2.20982
head 8.36546 -3.47674 0.68248
rclavicle -2.70844e-015 1.27222e-014
rhumerus -43.7699 -8.51296 -80.5239
rradius 18.9152
rwrist 15.433
rhand -10.5515 21.9433
rfingers 7.12502
rthumb 15.4525 -7.45901
lclavicle -2.70844e-015 1.27222e-014
lhumerus -38.8472 5.13543 85.5904
lradius 24.7791
lwrist 1.49456
lhand -5.53102 20.0888
lfingers 7.12502
lthumb 20.2831 49.0497
rfemur -31.9122 16.2711 13.2112
rtibia 33.5972
rfoot -11.0298 -14.1266
rtoes 45.6642
lfemur 15.064 -9.40596 -30.7799
ltibia 21.3771
lfoot -10.0556 1.78016
ltoes -12.4794
509
root -0.126864 15.8421 30.9355 1.63679 4.71017 5.07363
lowerback 13.0284 -0.0195381 -8.70147
upperback -5.9018 -1.61102 0.51568
thorax -13.7565 0.0705223 5.89695
lowerneck -10.4737 -5.32111 -4.06727
upperneck 20.9265 -7.11108 2.16977
head 8.45595 -3.47324 0.656112
rclavicle 1.14301e-014 6.75868e-015
rhumerus -43.3821 -8.8849 -80.2876
rradius 18.8567
rwrist 15.5977
rhand -10.4102 21.6355
rfingers 7.12502
rthumb 15.5886 -7.7563
lclavicle 1.14301e-014 6.75868e-015
lhumerus -39.2837 6.50982 84.7107
lradius 23.3664
lwrist 0.248383
lhand -6.19201 19.1922
lfingers 7.12502
lthumb 19.6478 48.2194
rfemur -31.4298 16.0736 13.9939
rtibia 34.2318
rfoot -10.9478 -13.583
rtoes 45.3242
lfemur 13.8048 -8.32999 -29.9304
ltibia 24.2046
lfoot -8.94357 0.750615
ltoes -12.2076
510
root -0.153033 15.8394 31.0725 1.47054 4.6284 4.87148
lowerback 13.1245 0.0279748 -8.55418
upperback -5.92417 -1.52896 0.521173
thorax -13.857 0.101931 5.8035
lowerneck -10.3625 -5.3176 -3.92768
upperneck 20.9951 -7.14023 2.17025
head 8.45409 -3.47728 0.632858
rclavicle -2.36057e-015 -1.86858e-014
rhumerus -43.0018 -9.41937 -80.1256
rradius 18.8588
rwrist 15.7619
rhand -10.5338 21.6505
rfingers 7.12502
rthumb 15.4696 -7.75053
lclavicle -2.36057e-015 -1.86858e-014
lhumerus -39.7177 7.54046 83.8587
lradius 22.2644
lwrist -0.732025
lhand -6.34279 19.124
lfingers 7.12502
lthumb 19.5028 48.1659
rfemur -31.0283 15.9903 14.6476
rtibia 34.8222
rfoot -11.0726 -13.1893
rtoes 45.0978
lfemur 12.4024 -7.14811 -29.0431
ltibia 26.999
lfoot -7.39042 -0.358619
ltoes -13.1587
511
root -0.185031 15.831 31.2084 1.30637 4.50812 4.87168
lowerback 13.1722 0.0992884 -8.71831
upperback -5.90978 -1.46898 0.514475
thorax -13.8801 0.145409 5.87602
lowerneck -10.3842 -5.31671 -3.91799
upperneck 21.2327 -7.15637 2.20483
head 8.54006 -3.4791 0.637674
rclavicle 1.28962e-014 1.19271e-015
rhumerus -42.4673 -9.82173 -79.9852
rradius 18.725
rwrist 15.9626
rhand -10.5014 21.4852
rfingers 7.12502
rthumb 15.5008 -7.91346
lclavicle 1.28962e-014 1.19271e-015
lhumerus -40.1194 8.41203 83.0651
lradius 21.2499
lwrist -1.39441
lhand -6.20659 19.1877
lfingers 7.12502
lthumb 19.6338 48.2163
rfemur -30.6836 16.0677 15.0636
rtibia 35.4394
rfoot -11.1894 -12.9938
rtoes 44.3399
lfemur 11.0262 -5.9866 -28.3542
ltibia 29.6896
lfoot -5.62479 -1.31346
ltoes -12.8501
512
root -0.215511 15.8263 31.3493 1.11579 4.41782 4.82202
lowerback 13.1302 0.204521 -8.7109
upperback -5.81211 -1.32523 0.439943
thorax -13.7643 0.197662 5.74968
lowerneck -10.6586 -5.4098 -3.84574
upperneck 21.5814 -7.30984 2.23512
head 8.71265 -3.53674 0.606926
rclavicle -1.54058e-015 1.66979e-014
rhumerus -41.8397 -10.8069 -79.6325
rradius 18.4891
rwrist 16.5847
rhand -10.1593 21.0108
rfingers 7.12502
rthumb 15.8303 -8.36205
lclavicle -1.54058e-015 1.66979e-014
lhumerus -40.3915 9.23458 82.1845
lradius 20.3297
lwrist -2.26282
lhand -5.92409 19.1979
lfingers 7.12502
lthumb 19.9053 48.1985
rfemur -30.2714 16.3064 15.4982
rtibia 36.0754
rfoot -11.5238 -12.911
rtoes 43.8546
lfemur 9.75788 -5.04592 -27.7106
ltibia 32.2427
lfoot -3.55083 -1.9113
ltoes -11.39
513
root -0.239001 15.8258 31.4913 1.02413 4.52752 5.04138
lowerback 13.0064 0.214955 -8.88125
upperback -5.75344 -1.34439 0.303954
thorax -13.6179 0.185921 5.69251
lowerneck -10.396 -5.39913 -3.86482
upperneck 21.2985 -7.33758 2.44546
head 8.57796 -3.53547 0.688007
rclavicle -2.88238e-015 4.37326e-014
rhumerus -41.3391 -11.3632 -79.5176
rradius 18.5403
rwrist 16.7681
rhand -9.98607 20.7079
rfingers 7.12502
rthumb 15.9971 -8.6516
lclavicle -2.88238e-015 4.37326e-014
lhumerus -40.6521 10.0388 81.3745
lradius 19.4553
lwrist -3.26262
lhand -5.62656 19.4593
lfingers 7.12502
lthumb 20.1913 48.43
rfemur -29.83 16.1096 15.6336
rtibia 36.6827
rfoot -11.8444 -12.5376
rtoes 44.1185
lfemur 8.44142 -4.46503 -27.4996
ltibia 34.7202
lfoot -1.20281 -2.16332
ltoes -9.5627
514
root -0.262597 15.8266 31.6313 0.923117 4.79699 5.31526
lowerback 12.9433 0.189976 -9.16327
upperback -5.71944 -1.4335 0.214982
thorax -13.5257 0.158046 5.77064
lowerneck -10.1712 -5.39804 -3.97532
upperneck 21.1339 -7.35446 2.61479
head 8.49274 -3.53938 0.768752
rclavicle 1.30701e-014 -2.24627e-014
rhumerus -40.9578 -11.4879 -79.5261
rradius 18.8928
rwrist 16.4785
rhand -9.97201 20.7291
rfingers 7.12502
rthumb 16.0106 -8.62929
lclavicle 1.30701e-014 -2.24627e-014
lhumerus -40.9469 10.81 80.68
lradius 18.4174
lwrist -4.53443
lhand -5.45651 19.2932
lfingers 7.12502
lthumb 20.3547 48.2465
rfemur -29.2272 15.6944 15.7271
rtibia 37.0935
rfoot -12.1099 -12.1404
rtoes 43.8455
lfemur 7.12121 -4.17685 -27.4482
ltibia 37.2892
lfoot 1.15312 -2.24159
ltoes -8.47511
